<?xml version="1.0" encoding="UTF-8"?>
<svg id="Capa_2" xmlns="http://www.w3.org/2000/svg" viewBox="0 0 60 60">
  <defs>
    <style>
      .cls-1 {
        fill: #fff;
      }
    </style>
  </defs>
  <g id="Capa_1-2" data-name="Capa_1">
    <path class="cls-1" d="M30.05,60C13.53,60.03.02,46.57,0,30.06-.02,13.5,13.43,0,29.99,0c16.53,0,30,13.44,30.01,29.97.02,16.53-13.43,30-29.95,30.03ZM32.59,24.93c0-1.3-.02-2.5,0-3.7.02-1.08.56-1.59,1.64-1.6,1.08-.01,2.17-.01,3.25,0,.36,0,.53-.08.52-.49-.02-1.67-.02-3.33,0-5,0-.39-.14-.5-.51-.5-1.75.01-3.5-.05-5.25,0-2.7.08-4.96,1.06-6.1,3.68-.45,1.04-.64,2.23-.77,3.38-.13,1.15-.07,2.33-.02,3.49.02.6-.19.74-.75.72-.89-.04-1.77-.01-2.68-.01v6.13c.89,0,1.74,0,2.59,0q.82,0,.82.8c0,5.25,0,10.49,0,15.74,0,.26,0,.53,0,.81h7.25v-17.37h4.85c.21-2.06.42-4.05.63-6.1h-5.5Z"/>
  </g>
</svg>