<?xml version="1.0" encoding="UTF-8"?>
<svg id="Capa_2" xmlns="http://www.w3.org/2000/svg" viewBox="0 0 60 60">
  <defs>
    <style>
      .cls-1 {
        fill: #fff;
      }
    </style>
  </defs>
  <g id="Capa_1-2" data-name="Capa_1">
    <g>
      <path class="cls-1" d="M29.96,0c16.5-.05,30.01,13.37,30.04,29.87.04,16.59-13.18,29.94-29.65,30.13C13.64,60.18.11,46.86,0,30.26-.11,13.5,13.27.05,29.96,0ZM45,30.01c0-1.96,0-3.91,0-5.87-.01-5.22-3.92-9.13-9.14-9.13-3.89,0-7.79,0-11.68,0-5.27,0-9.18,3.89-9.18,9.15,0,3.91,0,7.83,0,11.74,0,5.18,3.93,9.09,9.1,9.1,3.94,0,7.87,0,11.81,0,5.15-.01,9.07-3.92,9.09-9.06,0-1.98,0-3.96,0-5.93Z"/>
      <path class="cls-1" d="M18,29.98c0-1.94,0-3.87,0-5.81.02-3.59,2.56-6.14,6.14-6.15,3.9,0,7.79,0,11.69,0,3.59,0,6.14,2.55,6.15,6.14.01,3.9.01,7.79,0,11.69-.01,3.59-2.55,6.14-6.14,6.15-3.9.01-7.79.01-11.69,0-3.59-.01-6.14-2.56-6.16-6.14-.01-1.96,0-3.92,0-5.87ZM22.24,30c0,4.28,3.46,7.75,7.74,7.77,4.24.01,7.75-3.46,7.77-7.68.02-4.32-3.45-7.82-7.75-7.83-4.28,0-7.76,3.47-7.76,7.74ZM37.8,24.14c1.05,0,1.93-.87,1.92-1.9,0-1.04-.88-1.9-1.92-1.9-1.05,0-1.91.86-1.91,1.91,0,1.05.85,1.9,1.92,1.9Z"/>
      <path class="cls-1" d="M34.73,30c0,2.61-2.11,4.73-4.72,4.74-2.64,0-4.77-2.13-4.76-4.77.02-2.62,2.14-4.72,4.76-4.71,2.62,0,4.73,2.12,4.73,4.74Z"/>
    </g>
  </g>
</svg>