<?xml version="1.0" encoding="UTF-8"?>
<svg id="Capa_2" xmlns="http://www.w3.org/2000/svg" viewBox="0 0 55 51.42">
  <defs>
    <style>
      .cls-1 {
        fill: #fff;
      }

      .cls-2 {
        fill: #ffd800;
      }
    </style>
  </defs>
  <g id="Capa_1-2" data-name="Capa_1">
    <g>
      <path class="cls-2" d="M46.69,17.54h-7.18c-4.58,0-8.31,3.73-8.31,8.31v17.25c0,4.58,3.73,8.31,8.31,8.31h7.18c4.58,0,8.31-3.73,8.31-8.31v-17.25c0-4.58-3.73-8.31-8.31-8.31ZM50.11,43.11c0,1.89-1.54,3.42-3.42,3.42h-7.18c-1.89,0-3.42-1.54-3.42-3.42v-17.25c0-1.89,1.54-3.42,3.42-3.42h7.18c1.89,0,3.42,1.54,3.42,3.42v17.25Z"/>
      <path class="cls-1" d="M12,35.46c-1.89,0-3.42-1.53-3.42-3.42V8.31c0-1.89,1.53-3.42,3.42-3.42h31.46c1.89,0,3.42,1.53,3.42,3.42v2.35c0,1.35,1.09,2.45,2.45,2.45h0c1.35,0,2.45-1.09,2.45-2.45v-2.35c0-4.59-3.72-8.31-8.31-8.31H12C7.41,0,3.69,3.72,3.69,8.31v23.72c0,1.22.27,2.38.75,3.42h-1.99c-1.35,0-2.45,1.09-2.45,2.45h0c0,1.35,1.09,2.45,2.45,2.45h9.55s12.33,0,12.33,0c1.35,0,2.45-1.09,2.45-2.45h0c0-1.35-1.09-2.45-2.45-2.45h-12.33Z"/>
    </g>
  </g>
</svg>