<?xml version="1.0" encoding="UTF-8"?>
<svg id="Capa_2" xmlns="http://www.w3.org/2000/svg" viewBox="0 0 55 55.04">
  <defs>
    <style>
      .cls-1 {
        fill: #fff;
      }

      .cls-2 {
        fill: #ffd800;
      }
    </style>
  </defs>
  <g id="Capa_1-2" data-name="Capa_1">
    <g>
      <path class="cls-1" d="M42.32,39.01c4.02,3.89,7.49,7.26,10.97,10.62,1.37,1.33,2.6,2.83.84,4.57-1.77,1.75-3.22.43-4.54-.92-3.39-3.47-6.79-6.93-10.6-10.82-1.11,2.94-1.94,5.15-2.77,7.36-.61,1.64-1.65,2.93-3.49,2.95-1.82.02-2.88-1.15-3.47-2.88-2.79-8.14-5.77-16.22-8.41-24.41-1.07-3.32,1.29-5.64,4.6-4.56,8.18,2.65,16.26,5.6,24.39,8.39,1.73.59,2.94,1.76,2.92,3.49-.02,1.75-1.31,2.86-3,3.45-2.14.75-4.26,1.57-7.45,2.76ZM43.17,32.5c-5.15-1.76-10.3-3.52-16.3-5.57,2.07,5.97,3.84,11.09,6.09,17.59,1.23-6.74,4.1-10.49,10.2-12.02Z"/>
      <path class="cls-2" d="M37.77,5.92c1.3.12,2.27.85,2.46,2.34.24,1.84-5.51,7.68-7.46,7.57-1.53-.09-2.38-.91-2.38-2.49,0-1.55,5.66-7.36,7.37-7.43Z"/>
      <path class="cls-2" d="M15.81,32.88c.03,1.74-5.34,7.3-7.16,7.36-1.52.06-2.47-.7-2.68-2.2-.24-1.71,5.63-7.7,7.44-7.64,1.58.05,2.27,1.01,2.4,2.48Z"/>
      <path class="cls-2" d="M15.8,13.48c-.02,1.63-1.16,2.87-2.74,2.2-3.16-1.33-5.75-3.69-7.01-6.92-.57-1.46.72-2.76,2.49-2.83,1.57-.06,7.18,5.71,7.25,7.55Z"/>
      <path class="cls-2" d="M5.91,25.62c-.97,0-1.93.01-2.9,0C1.45,25.59.02,25.27,0,23.32c-.02-2.07,1.32-2.74,3.17-2.75,1.61,0,3.22,0,4.83-.03,1.9-.02,3.81.26,3.75,2.65-.06,2.44-2.06,2.48-3.91,2.43-.64-.02-1.29,0-1.93,0Z"/>
      <path class="cls-2" d="M25.57,6.03c0,1.13.04,2.26,0,3.38-.06,1.54-.95,2.4-2.45,2.39-1.49-.01-2.4-.89-2.46-2.41-.07-1.93-.01-3.87-.05-5.8-.03-1.72.17-3.45,2.28-3.58,2.44-.15,2.78,1.66,2.73,3.6-.02.81,0,1.61,0,2.42-.01,0-.03,0-.04,0Z"/>
    </g>
  </g>
</svg>