<?xml version="1.0" encoding="UTF-8"?>
<svg id="Capa_2" xmlns="http://www.w3.org/2000/svg" viewBox="0 0 64.41 64.4">
  <defs>
    <style>
      .cls-1 {
        fill: #fff;
      }

      .cls-2 {
        fill: #ffd800;
      }
    </style>
  </defs>
  <g id="Capa_1-2" data-name="Capa_1">
    <g>
      <path class="cls-1" d="M31.1,55.04c-11.99,0-21.74-9.75-21.74-21.74S19.12,11.56,31.1,11.56v4c-9.78,0-17.74,7.96-17.74,17.74s7.96,17.74,17.74,17.74,17.74-7.96,17.74-17.74h4c0,11.99-9.75,21.74-21.74,21.74Z"/>
      <path class="cls-1" d="M31.1,45.2c-6.56,0-11.9-5.34-11.9-11.9s5.34-11.9,11.9-11.9v4c-4.35,0-7.9,3.54-7.9,7.9s3.54,7.9,7.9,7.9,7.9-3.54,7.9-7.9h4c0,6.56-5.34,11.9-11.9,11.9Z"/>
      <path class="cls-1" d="M31.1,64.4C13.95,64.4,0,50.45,0,33.3S13.95,2.21,31.1,2.21v4c-14.94,0-27.1,12.16-27.1,27.1s12.16,27.1,27.1,27.1,27.1-12.16,27.1-27.1h4c0,17.15-13.95,31.1-31.1,31.1Z"/>
      <path class="cls-2" d="M64.41,15.88l-11.83-4.04L48.53,0l-11.76,11.76,3.32,9.73-10.41,10.41,2.83,2.83,10.41-10.41,9.72,3.32,11.76-11.76ZM41.36,12.83l5.46-5.46,1.88,5.51-5.46,5.46-1.88-5.51ZM46.07,21.16l5.46-5.46,5.51,1.88-5.46,5.46-5.51-1.88Z"/>
    </g>
  </g>
</svg>