<?xml version="1.0" encoding="UTF-8"?>
<svg id="Capa_2" xmlns="http://www.w3.org/2000/svg" viewBox="0 0 55.98 51.42">
  <defs>
    <style>
      .cls-1 {
        fill: #fff;
      }

      .cls-2 {
        fill: #ffd800;
      }
    </style>
  </defs>
  <g id="Capa_1-2" data-name="Capa_1">
    <g>
      <path class="cls-1" d="M53.53,35.59h-2c.48-1.05.75-2.21.75-3.44V8.35c0-4.61-3.74-8.35-8.35-8.35H12.04C7.44,0,3.7,3.74,3.7,8.35v23.81c0,1.22.27,2.39.75,3.44h-2c-1.35,0-2.45,1.1-2.45,2.45,0,.68.27,1.29.72,1.74.45.45,1.06.72,1.74.72h16.02c-.62-1.33-.96-2.82-.96-4.38,0-.18,0-.35.01-.53h-5.47c-1.9,0-3.43-1.54-3.43-3.44V8.35c0-1.9,1.54-3.43,3.43-3.43h31.89c1.9,0,3.43,1.54,3.43,3.43v23.81c0,1.9-1.54,3.44-3.43,3.44h-5.47c0,.17.01.35.01.53,0,1.56-.35,3.05-.96,4.38h16.02c.67,0,1.29-.27,1.73-.72s.72-1.06.72-1.74c0-1.36-1.1-2.45-2.45-2.45Z"/>
      <path class="cls-2" d="M43.29,35.59c-.28-8.2-7.03-14.78-15.3-14.78s-15.01,6.58-15.29,14.78c0,.17,0,.35,0,.53,0,1.52.22,2.99.64,4.38,1.89,6.31,7.75,10.92,14.66,10.92s12.78-4.61,14.67-10.92c.41-1.39.64-2.86.64-4.38,0-.18,0-.35,0-.53ZM27.99,46.6c-4.22,0-7.86-2.5-9.52-6.1-.62-1.33-.96-2.82-.96-4.38,0-.18,0-.35.01-.53.28-5.54,4.87-9.96,10.47-9.96s10.2,4.42,10.47,9.96c0,.17.01.35.01.53,0,1.56-.35,3.05-.96,4.38-1.66,3.6-5.31,6.1-9.52,6.1Z"/>
      <path class="cls-2" d="M27.01,43.03c-2.23-.19-3.58-1.16-4.31-1.81l.95-2.15c.65.57,2.02,1.47,4.21,1.47,1.2,0,2.46-.65,2.46-1.68s-1.14-1.35-2.15-1.58c-2.4-.59-4.99-1.41-4.99-4.27,0-2.25,1.73-3.6,3.83-3.87v-2.27h2.08v2.29c1.37.11,2.59.69,3.6,1.37l-.95,2.15c-.91-.59-2.21-1.07-3.68-1.07-.88,0-1.94.48-1.94,1.37s.88,1.2,2.1,1.51c2.53.67,5.05,1.64,5.05,4.31,0,2.42-1.94,3.81-4.19,4.17v2.4h-2.08v-2.34Z"/>
    </g>
  </g>
</svg>