<?xml version="1.0" encoding="UTF-8"?>
<svg id="Capa_2" xmlns="http://www.w3.org/2000/svg" viewBox="0 0 62.7 56">
  <defs>
    <style>
      .cls-1 {
        fill: #fff;
      }

      .cls-2 {
        fill: #ffd800;
      }
    </style>
  </defs>
  <g id="Capa_1-2" data-name="Capa_1">
    <g>
      <g>
        <path class="cls-2" d="M50.43,49.68l-2.83-2.83c2.5-2.5,3.88-5.83,3.88-9.37s-1.38-6.87-3.88-9.37l2.83-2.83c3.26,3.26,5.05,7.59,5.05,12.2s-1.79,8.94-5.05,12.2Z"/>
        <path class="cls-2" d="M45.06,44.3l-2.83-2.83c1.07-1.07,1.65-2.48,1.65-3.99s-.59-2.93-1.65-3.99l2.83-2.83c1.82,1.82,2.82,4.24,2.82,6.82s-1,5-2.83,6.82Z"/>
        <path class="cls-2" d="M55.54,54.79l-2.83-2.83c7.98-7.99,7.99-20.98,0-28.96l2.83-2.83c9.54,9.54,9.54,25.07,0,34.62Z"/>
      </g>
      <g>
        <path class="cls-1" d="M26.77,0C12.26,0,0,7.84,0,17.11c0,5.06,3.54,9.85,9.73,13.12l1.87-3.54c-4.83-2.56-7.6-6.05-7.6-9.59,0-6.99,10.64-13.11,22.77-13.11s22.77,6.13,22.77,13.11c0,1.1-.27,2.21-.79,3.29l3.59,1.75c.79-1.63,1.2-3.32,1.2-5.04C53.55,7.84,41.29,0,26.77,0Z"/>
        <path class="cls-1" d="M26.77,9.53c-4.19,0-7.58,3.39-7.58,7.58s3.39,7.58,7.58,7.58,7.58-3.39,7.58-7.58-3.39-7.58-7.58-7.58Z"/>
      </g>
      <rect class="cls-1" x="18.22" y="31.52" width="5.08" height="12.57"/>
      <polygon class="cls-1" points="29.22 53.46 24.82 56 18.99 45.91 24.86 45.91 29.22 53.46"/>
      <polygon class="cls-1" points="26.53 31.52 25.19 31.52 25.19 32.38 25.19 43.24 25.19 44.1 26.54 44.1 36.82 50.68 36.82 24.94 26.53 31.52"/>
    </g>
  </g>
</svg>