<?xml version="1.0" encoding="UTF-8"?>
<svg id="Capa_2" xmlns="http://www.w3.org/2000/svg" viewBox="0 0 60.83 60.83">
  <defs>
    <style>
      .cls-1 {
        fill: #fff;
      }

      .cls-2 {
        fill: #ffd800;
      }
    </style>
  </defs>
  <g id="Capa_1-2" data-name="Capa_1">
    <g>
      <path class="cls-1" d="M29.38,51.99c-11.32,0-20.53-9.21-20.53-20.53S18.06,10.92,29.38,10.92v3.78c-9.24,0-16.76,7.52-16.76,16.76s7.52,16.76,16.76,16.76,16.76-7.52,16.76-16.76h3.78c0,11.32-9.21,20.53-20.53,20.53Z"/>
      <path class="cls-1" d="M29.38,42.7c-6.2,0-11.24-5.04-11.24-11.24s5.04-11.24,11.24-11.24v3.78c-4.11,0-7.46,3.35-7.46,7.46s3.35,7.46,7.46,7.46,7.46-3.35,7.46-7.46h3.78c0,6.2-5.04,11.24-11.24,11.24Z"/>
      <path class="cls-1" d="M29.38,60.83C13.18,60.83,0,47.65,0,31.46S13.18,2.08,29.38,2.08v3.78C15.26,5.86,3.78,17.34,3.78,31.46s11.48,25.59,25.6,25.59,25.59-11.48,25.59-25.59h3.78c0,16.2-13.18,29.37-29.37,29.37Z"/>
      <path class="cls-2" d="M60.83,15l-11.18-3.82-3.82-11.18-11.11,11.11,3.14,9.19-9.83,9.83,2.67,2.67,9.83-9.83,9.19,3.14,11.11-11.11ZM39.07,12.11l5.16-5.16,1.78,5.2-5.16,5.16-1.78-5.2ZM43.52,19.99l5.16-5.16,5.2,1.78-5.16,5.16-5.2-1.78Z"/>
    </g>
  </g>
</svg>