<?xml version="1.0" encoding="UTF-8"?>
<svg id="Capa_2" xmlns="http://www.w3.org/2000/svg" viewBox="0 0 56.43 57.49">
  <defs>
    <style>
      .cls-1 {
        fill: #fff;
      }

      .cls-2 {
        fill: #ffd800;
      }
    </style>
  </defs>
  <g id="Capa_1-2" data-name="Capa_1">
    <g>
      <g>
        <path class="cls-2" d="M35.78,13.14c-4.17-4.17-10.95-4.17-15.12,0l-2.83-2.83c5.73-5.73,15.05-5.73,20.78,0l-2.83,2.83Z"/>
        <path class="cls-2" d="M31.3,17.61c-1.7-1.7-4.47-1.7-6.17,0l-2.83-2.83c3.26-3.26,8.57-3.26,11.83,0l-2.83,2.83Z"/>
        <path class="cls-2" d="M40.03,8.89c-6.52-6.52-17.12-6.52-23.63,0l-2.83-2.83c8.07-8.07,21.21-8.07,29.29,0l-2.83,2.83Z"/>
      </g>
      <g>
        <circle class="cls-1" cx="12.4" cy="28.41" r="1.78"/>
        <g>
          <path class="cls-1" d="M24.13,36.26l-3.49-6.84v-5.28c0-8.61-7-15.61-15.61-15.61H0v4h5.03c6.4,0,11.61,5.21,11.61,11.61v6.24l3.92,7.8-.08.05h-6.76v6.72c0,1.64-1.33,2.97-2.97,2.97H1.56v9.58h4v-5.58h5.18c3.84,0,6.97-3.13,6.97-6.97v-2.72h2.76c1.44,0,2.75-.73,3.5-1.96.75-1.23.81-2.72.16-4.01Z"/>
          <path class="cls-1" d="M39.79,24.14c0-6.4,5.21-11.61,11.61-11.61h5.03v-4h-5.03c-8.61,0-15.61,7-15.61,15.61v5.28l-3.49,6.84c-.65,1.28-.59,2.78.16,4.01.75,1.23,2.06,1.96,3.5,1.96h2.75v2.72c0,3.84,3.13,6.97,6.97,6.97h5.18v5.58h4v-9.58h-9.18c-1.64,0-2.97-1.33-2.97-2.97v-6.72h-6.75l-.09-.15,3.92-7.7v-6.24Z"/>
        </g>
        <circle class="cls-1" cx="44.03" cy="28.41" r="1.78"/>
      </g>
    </g>
  </g>
</svg>