<?xml version="1.0" encoding="UTF-8"?>
<svg id="Capa_2" xmlns="http://www.w3.org/2000/svg" viewBox="0 0 48.28 48.28">
  <defs>
    <style>
      .cls-1 {
        fill: #fff;
      }

      .cls-2 {
        fill: #ffce00;
      }
    </style>
  </defs>
  <g id="Capa_1-2" data-name="Capa_1">
    <g>
      <g>
        <path class="cls-1" d="M46.45,14.92l-3.7,1.53c1.01,2.44,1.52,5.03,1.52,7.69,0,5.62-2.32,10.71-6.05,14.37-3.23-4.51-8.42-7.23-14.08-7.23s-10.86,2.72-14.09,7.23c-3.73-3.66-6.05-8.74-6.05-14.37C4,13.03,13.03,4,24.14,4c2.72,0,5.36.53,7.84,1.58l1.56-3.68c-2.98-1.26-6.14-1.9-9.4-1.9C10.83,0,0,10.83,0,24.14s10.83,24.14,24.14,24.14,24.14-10.83,24.14-24.14c0-3.19-.61-6.29-1.82-9.22ZM13.18,41.01c2.47-3.58,6.53-5.74,10.96-5.74s8.48,2.16,10.95,5.74c-3.16,2.06-6.92,3.26-10.96,3.26s-7.8-1.21-10.96-3.26Z"/>
        <path class="cls-1" d="M16.42,22.01c0,4.26,3.46,7.72,7.72,7.72s7.72-3.46,7.72-7.72-3.46-7.72-7.72-7.72-7.72,3.46-7.72,7.72ZM27.86,22.01c0,2.05-1.67,3.72-3.72,3.72s-3.72-1.67-3.72-3.72,1.67-3.72,3.72-3.72,3.72,1.67,3.72,3.72Z"/>
      </g>
      <polygon class="cls-2" points="40.88 7.05 47.71 9.57 40.88 12.1 38.36 18.93 35.83 12.1 29 9.57 35.83 7.05 38.36 .22 40.88 7.05"/>
    </g>
  </g>
</svg>