<?xml version="1.0" encoding="UTF-8"?>
<svg id="Capa_2" xmlns="http://www.w3.org/2000/svg" viewBox="0 0 45.11 43.77">
  <defs>
    <style>
      .cls-1 {
        fill: #fff;
      }

      .cls-2 {
        fill: #ffd800;
      }
    </style>
  </defs>
  <g id="Capa_1-2" data-name="Capa_1">
    <g>
      <polygon class="cls-2" points="30.14 0 30.14 4 37.48 4 7.94 33.54 10.77 36.37 40.24 6.89 40.24 13.79 44.24 13.79 44.24 0 30.14 0"/>
      <g>
        <path class="cls-1" d="M31,23.73v4h7.27l-10.16,10.16c-1.5,1.5-3.65,2.17-5.74,1.76l-7.41-1.43-.76,3.93,7.41,1.43c.66.13,1.32.19,1.98.19,2.73,0,5.38-1.08,7.35-3.05l10.17-10.17v6.96h4v-13.79h-14.1Z"/>
        <path class="cls-1" d="M0,9.99h6.96l-3.38,3.38C1.14,15.81.07,19.3.73,22.7l1.43,7.41,3.93-.76-1.43-7.41c-.4-2.09.25-4.24,1.76-5.74l3.37-3.37v7.27h4V5.99H0v4Z"/>
      </g>
    </g>
  </g>
</svg>