<?xml version="1.0" encoding="UTF-8"?>
<svg id="Capa_2" xmlns="http://www.w3.org/2000/svg" viewBox="0 0 51.41 46.99">
  <defs>
    <style>
      .cls-1 {
        fill: #fff;
      }

      .cls-2 {
        fill: #ffd400;
      }
    </style>
  </defs>
  <g id="Capa_1-2" data-name="Capa_1">
    <g>
      <polygon class="cls-2" points="10.08 14.57 10.08 38.89 14.08 38.89 14.08 18.57 21.89 18.57 21.89 23.76 18.61 23.76 18.61 27.76 25.89 27.76 25.89 18.57 32.79 18.57 32.79 34.89 21.26 34.89 21.26 32.17 17.26 32.17 17.26 38.89 36.79 38.89 36.79 14.57 10.08 14.57"/>
      <path class="cls-1" d="M51.4,38.36V8.6c0-2.3-.9-4.46-2.52-6.08-1.62-1.62-3.78-2.52-6.08-2.52h-4.3v33.79s4.3,0,4.3,0c2.53,0,4.59,2.06,4.6,4.59h0s0,.01,0,.01c0,2.54-2.06,4.6-4.6,4.6H4V10.47h30.57v-4H0v40.52h42.81c4.74,0,8.6-3.86,8.6-8.6,0,0,0-.02,0-.03ZM42.81,29.79h-.3V4h.3c1.23,0,2.38.48,3.25,1.35.87.87,1.35,2.02,1.35,3.25v22.54c-1.33-.85-2.91-1.35-4.6-1.35Z"/>
    </g>
  </g>
</svg>