<?xml version="1.0" encoding="UTF-8"?>
<svg id="Capa_2" xmlns="http://www.w3.org/2000/svg" viewBox="0 0 49.53 47.64">
  <defs>
    <style>
      .cls-1 {
        fill: #fff;
      }

      .cls-2 {
        fill: #ffd800;
      }
    </style>
  </defs>
  <g id="Capa_1-2" data-name="Capa_1">
    <g>
      <path class="cls-1" d="M49.53,25.69c0-2.21-1.79-4-4-4s-4,1.79-4,4c0,.73.21,1.41.56,2l-6.81,11.96c-.72,0-1.39.21-1.97.55L8,25.67c0-2.2-1.79-3.99-4-3.99s-4,1.79-4,4,1.79,4,4,4c.73,0,1.4-.21,1.99-.55l25.31,14.52c0,2.2,1.79,3.99,4,3.99s4-1.79,4-4c0-.73-.21-1.41-.56-2l6.81-11.95c2.2-.01,3.98-1.8,3.98-4Z"/>
      <path class="cls-2" d="M45.14,0c-2.21,0-4,1.79-4,4,0,.72.21,1.39.54,1.97l-10.06,17.26s-.01,0-.02,0c-.74,0-1.43.21-2.02.57l-7.9-4.45c-.02-2.19-1.8-3.96-4-3.96s-4,1.79-4,4c0,.72.21,1.39.54,1.97l-10.22,17.56s0,0-.01,0c-2.21,0-4,1.79-4,4s1.79,4,4,4,4-1.79,4-4c0-.72-.21-1.39-.54-1.97l10.22-17.56s0,0,.01,0c.74,0,1.43-.21,2.02-.57l7.9,4.45c.02,2.19,1.8,3.96,4,3.96s4-1.79,4-4c0-.72-.21-1.39-.54-1.97l10.06-17.26s.01,0,.02,0c2.21,0,4-1.79,4-4s-1.79-4-4-4Z"/>
    </g>
  </g>
</svg>