<?xml version="1.0" encoding="UTF-8"?>
<svg id="Capa_2" xmlns="http://www.w3.org/2000/svg" viewBox="0 0 49.87 53.09">
  <defs>
    <style>
      .cls-1 {
        fill: #fff;
      }

      .cls-2 {
        fill: #ffd800;
      }
    </style>
  </defs>
  <g id="Capa_1-2" data-name="Capa_1">
    <g>
      <path class="cls-1" d="M42.75,50.26l-10.46-10.46c.58-.73,1.12-1.5,1.6-2.33l-3.47-1.99c-2.52,4.39-7.22,7.12-12.28,7.12-7.8,0-14.14-6.34-14.14-14.14s6.34-14.14,14.14-14.14v-4C8.14,10.34,0,18.48,0,28.48s8.14,18.14,18.14,18.14c4.17,0,8.15-1.45,11.32-3.99l10.46,10.46,2.83-2.83Z"/>
      <polygon class="cls-2" points="49.87 30.48 38.41 30.48 38.41 26.48 42.94 26.48 32.27 8 21.6 26.48 25.84 26.48 25.84 30.48 14.67 30.48 32.27 0 49.87 30.48"/>
      <path class="cls-2" d="M34.32,31.52c0,1.12-.91,2.06-2.06,2.06s-2.03-.94-2.03-2.06.94-2.03,2.03-2.03c1.15,0,2.06.91,2.06,2.03ZM30.61,14.2h3.33l-.27,13.4h-2.8l-.27-13.4Z"/>
    </g>
  </g>
</svg>