<?xml version="1.0" encoding="UTF-8"?>
<svg id="Capa_2" xmlns="http://www.w3.org/2000/svg" viewBox="0 0 69.8 44.67">
  <defs>
    <style>
      .cls-1 {
        fill: #fff;
      }

      .cls-2 {
        fill: #e2e2e2;
      }
    </style>
  </defs>
  <g id="Capa_1-2" data-name="Capa_1">
    <g>
      <path class="cls-2" d="M51.57,25.57l-6.88-6.68s-.04-.02-.06,0l-3.12,3.22s-.02.04,0,.06l7.03,6.83c.49.48.66,1.24.31,1.83-.5.83-1.59.93-2.25.31l-5.55-5.35c-.91-.88-2.35-.85-3.23.06h0c-.88.91-.85,2.35.06,3.23l4.31,4.15s.02.04,0,.06l-.95.98c-.56.58-1.51.6-2.09.04l-4.8-4.6c-.91-.87-2.36-.84-3.23.07h0c-.87.91-.84,2.36.07,3.23l3.41,3.27s.02.04,0,.06l-.93.96c-.57.59-1.51.6-2.1.04l-3.8-3.66c-.91-.88-2.35-.85-3.23.06h0c-.88.91-.85,2.35.06,3.23l1.71,1.65s.02.04,0,.06l-.97,1c-.27.28-.63.43-1.01.44-.38.02-.75-.14-1.03-.4l-10.32-9.97h-.12V8.6s.02-.04.04-.04h4.31c1.26,0,2.28-1.02,2.28-2.28h0c0-1.26-1.02-2.28-2.28-2.28H0s0,30.27,0,30.27c0,.02.02.04.04.04h11.09s.02,0,.03.01l8.99,8.68c1.16,1.12,2.67,1.68,4.17,1.68s3.15-.61,4.32-1.83l1.14-1.18s.03-.02.05,0c.87.45,1.83.68,2.78.68,1.57,0,3.15-.61,4.32-1.83l1.41-1.46s.03-.01.04-.01c.58.18,1.19.28,1.79.28,1.58,0,3.15-.61,4.33-1.83l1.51-1.56s.03-.01.04-.01c.51.13,1.03.21,1.55.21,1.5,0,2.99-.55,4.15-1.66,2.49-2.37,2.28-6.49-.18-8.88ZM4.61,8.55h3.65s.04.02.04.04v21.09s-.02.04-.04.04h-3.65s-.04-.02-.04-.04V8.6s.02-.04.04-.04Z"/>
      <path class="cls-1" d="M50.63,3.99l-10.88-3.35C38.47.24,37.15,0,35.81,0c-4.16-.02-8.07,1.59-11,4.53l-7.71,7.71c-1.79,1.79-2.36,4.41-1.47,6.67.91,2.3,3.13,3.88,5.74,3.88,1.09,0,2.15-.34,3.09-.87l9.18-5.14c2.9,3.99,7.54,6.4,12.58,6.4h.17c1.26,0,2.28-1.02,2.28-2.28h0c0-1.26-1.02-2.28-2.28-2.28h-.17c-4.11,0-7.88-2.29-9.78-5.94l-1.09-2.1-13.29,7.45c-.53.3-1.03.2-1.28.11-.25-.09-.7-.32-.93-.9-.22-.56-.04-1.27.45-1.76l7.7-7.71c2.12-2.12,4.97-3.26,7.98-3.19.75.02,1.5.15,2.22.38l11.71,3.61h6.82v21.34c0,1.26,1.02,2.28,2.28,2.28h0c1.26,0,2.28-1.02,2.28-2.28V8.55h3.9v21.18c0,1.26,1.02,2.28,2.28,2.28h0c1.26,0,2.28-1.02,2.28-2.28V3.99h-19.17Z"/>
    </g>
  </g>
</svg>