<?xml version="1.0" encoding="UTF-8"?>
<svg id="Capa_2" xmlns="http://www.w3.org/2000/svg" viewBox="0 0 51.42 51.46">
  <defs>
    <style>
      .cls-1 {
        fill: #fff;
      }

      .cls-2 {
        fill: #ffd800;
      }
    </style>
  </defs>
  <g id="Capa_1-2" data-name="Capa_1">
    <g>
      <path class="cls-2" d="M19.48,3.55h0c-.98-.98-2.56-.98-3.54,0l-4.37,4.37L7.2,3.55c-.98-.98-2.56-.98-3.54,0h0c-.98.98-.98,2.56,0,3.54l4.37,4.37-4.37,4.37c-.98.98-.98,2.56,0,3.54h0c.98.98,2.56.98,3.54,0l4.37-4.37,4.37,4.37c.98.98,2.56.98,3.54,0h0c.98-.98.98-2.56,0-3.54l-4.37-4.37,4.37-4.37c.98-.98.98-2.56,0-3.54Z"/>
      <path class="cls-2" d="M47.88,31.95h0c-.98-.98-2.56-.98-3.54,0l-4.37,4.37-4.37-4.37c-.98-.98-2.56-.98-3.54,0h0c-.98.98-.98,2.56,0,3.54l4.37,4.37-4.37,4.37c-.98.98-.98,2.56,0,3.54h0c.98.98,2.56.98,3.54,0l4.37-4.37,4.37,4.37c.98.98,2.56.98,3.54,0h0c.98-.98.98-2.56,0-3.54l-4.37-4.37,4.37-4.37c.98-.98.98-2.56,0-3.54Z"/>
      <path class="cls-1" d="M32.87,0v5h10.01l-29.87,29.87c-1.25-.68-2.67-1.06-4.19-1.06-4.87,0-8.83,3.96-8.83,8.83s3.96,8.83,8.83,8.83,8.83-3.96,8.83-8.83c0-1.54-.4-2.98-1.09-4.24l29.85-29.85v10.01h5V0h-18.54ZM8.83,46.46c-2.11,0-3.83-1.72-3.83-3.83s1.72-3.83,3.83-3.83,3.83,1.72,3.83,3.83-1.72,3.83-3.83,3.83Z"/>
    </g>
  </g>
</svg>